<?xml version="1.0" encoding="utf-8"?>
<!-- Generator: Adobe Illustrator 23.0.2, SVG Export Plug-In . SVG Version: 6.00 Build 0)  -->
<svg version="1.1" id="Layer_1" xmlns="http://www.w3.org/2000/svg" xmlns:xlink="http://www.w3.org/1999/xlink" x="0px" y="0px"
	 viewBox="0 0 38 38" style="enable-background:new 0 0 38 38;" xml:space="preserve">
<style type="text/css">
	.st0{clip-path:url(#SVGID_2_);fill:url(#SVGID_3_);}
	.st1{clip-path:url(#SVGID_5_);fill:url(#SVGID_6_);}
	.st2{clip-path:url(#SVGID_8_);fill:url(#SVGID_9_);}
	.st3{clip-path:url(#SVGID_11_);fill:url(#SVGID_12_);}
</style>
<g>
	<g>
		<defs>
			<path id="SVGID_1_" d="M10,14.6c-0.5,0-1,0-1.5,0.1c-0.6,0.1-1.2,0.2-1.7,0.4c-1.4,0.5-2.6,1.3-3.7,2.3c-1.2,1.1-2,2.5-2.5,4
				c-0.2,0.6-0.3,1.2-0.4,1.8c0,0.4-0.1,0.7-0.1,1.1c0,0.1,0,0.2,0,0.2c0,0.2,0,0.5,0.1,0.7c0,0.4,0.1,0.9,0.2,1.3
				c0.2,0.8,0.5,1.6,0.8,2.4c0.5,1,1.1,1.8,1.9,2.6c1,1,2.1,1.7,3.3,2.2c0.7,0.3,1.4,0.5,2.2,0.6c0.3,0,0.7,0.1,1,0.1
				c0.4,0,0.7,0,1.1,0c0.4,0,0.8-0.1,1.3-0.2c0.7-0.1,1.4-0.3,2.1-0.6c1-0.4,1.9-1,2.7-1.8c0.3-0.3,0.5-0.5,0.8-0.8
				c0.7-0.7,1.4-1.4,2.1-2.1c0.4-0.4,0.8-0.8,1.3-1.3c1.9-1.9,3.8-3.8,5.7-5.7c0.1-0.1,0.1-0.1,0.2-0.2c0.4-0.4,0.9-0.8,1.4-1.1
				c0.5-0.3,1-0.5,1.5-0.6c0.3-0.1,0.6-0.1,0.9-0.1c0.1,0,0.1,0,0.1-0.1c0,0,0,0,0.1,0c-0.1-0.1-0.1-0.1-0.2-0.2
				c-0.3-0.2-0.5-0.3-0.8-0.4c-0.4-0.2-0.9-0.3-1.4-0.3c-0.3,0-0.7,0-1,0c-0.4,0.1-0.8,0.2-1.2,0.3c-0.6,0.2-1.1,0.6-1.6,1
				c-0.3,0.2-0.5,0.5-0.8,0.7c-1,1-2,2-3,3c-1.2,1.2-2.4,2.4-3.6,3.6c-0.5,0.5-1,1-1.5,1.5c-0.2,0.2-0.5,0.5-0.7,0.7
				c-0.6,0.5-1.2,1-1.9,1.3c-0.8,0.4-1.7,0.6-2.7,0.7c-0.4,0-0.9,0-1.3,0c-0.4,0-0.7-0.1-1.1-0.2c-1.6-0.4-2.9-1.3-3.9-2.6
				c-0.9-1.2-1.4-2.6-1.5-4.2c0-0.4,0-0.8,0.1-1.2c0.1-0.5,0.2-1,0.4-1.5C3.6,21,4.2,20,5,19.2c1.3-1.3,3-1.9,4.8-2
				c0.6,0,1.2,0,1.8,0.1c1.1,0.2,2.1,0.7,3,1.4c0.2,0.2,0.4,0.4,0.6,0.6c0.1,0.1,0.3,0.3,0.5,0.3c0.2,0.1,0.5,0.1,0.7,0.1
				c0.5-0.1,0.9-0.4,1-0.8c0.1-0.3,0.1-0.6,0-0.9c-0.1-0.2-0.2-0.4-0.4-0.6c-0.1-0.1-0.2-0.2-0.4-0.3c-0.7-0.6-1.4-1.1-2.3-1.5
				c-1-0.5-2.2-0.8-3.3-0.9c-0.3,0-0.6,0-0.9,0C10.1,14.6,10.1,14.6,10,14.6"/>
		</defs>
		<clipPath id="SVGID_2_">
			<use xlink:href="#SVGID_1_"  style="overflow:visible;"/>
		</clipPath>
		
			<linearGradient id="SVGID_3_" gradientUnits="userSpaceOnUse" x1="-274.6403" y1="445.3958" x2="-273.9806" y2="445.3958" gradientTransform="matrix(56.4551 -0.4705 -0.4705 -56.4551 15714.3799 25040.2695)">
			<stop  offset="0" style="stop-color:#00B7EB"/>
			<stop  offset="4.753640e-04" style="stop-color:#00B7EB"/>
			<stop  offset="0.9995" style="stop-color:#1FB584"/>
			<stop  offset="1" style="stop-color:#1FB584"/>
		</linearGradient>
		<polygon class="st0" points="0,14.6 30.8,14.3 30.9,34.4 0.2,34.7 		"/>
	</g>
	<g>
		<defs>
			<path id="SVGID_4_" d="M27.3,14.6c-0.4,0-0.9,0.1-1.3,0.2c-0.9,0.2-1.8,0.5-2.6,0.9c-0.8,0.4-1.6,1-2.3,1.6
				c-0.4,0.4-0.7,0.7-1.1,1.1c-2.9,2.9-5.7,5.7-8.6,8.6c-0.1,0.1-0.3,0.3-0.4,0.4c-0.4,0.4-0.9,0.7-1.4,1c-0.5,0.2-0.9,0.4-1.4,0.5
				c-0.2,0-0.5,0.1-0.7,0.1c-0.1,0-0.2,0-0.2,0.1c0,0.1,0.1,0.2,0.2,0.2c0,0,0.1,0,0.1,0.1C8.3,29.7,9,29.9,9.7,30
				c0.5,0,0.9,0,1.4-0.1c0.6-0.1,1.2-0.4,1.7-0.7c0.4-0.3,0.8-0.6,1.2-1c1.3-1.3,2.5-2.5,3.8-3.8c0.9-0.9,1.8-1.8,2.7-2.7
				c0.6-0.6,1.1-1.1,1.7-1.7c0.3-0.3,0.6-0.6,0.8-0.8c0.6-0.6,1.2-1,2-1.4c0.8-0.4,1.6-0.6,2.5-0.7c0.3,0,0.7,0,1,0
				c0.3,0,0.6,0.1,0.9,0.1c0.7,0.1,1.4,0.4,2.1,0.7c1.6,0.9,2.7,2.1,3.4,3.8c0.3,0.7,0.4,1.5,0.5,2.2c0,0.6,0,1.3-0.2,1.9
				c-0.2,0.7-0.4,1.3-0.7,2c-0.6,1.1-1.4,2-2.5,2.7c-0.6,0.4-1.3,0.7-2,0.9c-0.6,0.2-1.1,0.3-1.7,0.3c-0.4,0-0.7,0-1.1,0
				c-0.4,0-0.8-0.1-1.2-0.2c-0.8-0.2-1.5-0.6-2.1-1c-0.4-0.3-0.7-0.5-1-0.8c-0.2-0.2-0.4-0.3-0.6-0.4c-0.2-0.1-0.5-0.1-0.7-0.1
				c-0.7,0.1-1.2,0.8-1,1.6c0.1,0.2,0.2,0.5,0.4,0.6c0.5,0.5,1.1,0.9,1.6,1.3c1.4,0.9,3,1.4,4.6,1.5c0.5,0,1.1,0,1.6,0
				c0.4,0,0.8-0.1,1.2-0.2c0.8-0.2,1.6-0.4,2.3-0.8c1-0.5,1.9-1.1,2.7-1.9c0.4-0.4,0.8-0.9,1.2-1.5c0.7-1,1.1-2.1,1.4-3.2
				c0.1-0.4,0.2-0.8,0.2-1.1c0-0.3,0-0.5,0.1-0.8c0-0.1,0-0.3,0-0.4c0-0.2,0-0.4-0.1-0.6c0-0.3-0.1-0.6-0.1-0.9
				c-0.1-0.6-0.2-1.1-0.4-1.7c-0.5-1.4-1.3-2.6-2.3-3.7c-1-1-2.3-1.8-3.6-2.3c-0.9-0.3-1.8-0.5-2.7-0.6c-0.2,0-0.4,0-0.6,0
				C27.9,14.6,27.6,14.6,27.3,14.6"/>
		</defs>
		<clipPath id="SVGID_5_">
			<use xlink:href="#SVGID_4_"  style="overflow:visible;"/>
		</clipPath>
		
			<linearGradient id="SVGID_6_" gradientUnits="userSpaceOnUse" x1="-274.6403" y1="445.3987" x2="-273.9806" y2="445.3987" gradientTransform="matrix(56.4551 -0.4705 -0.4705 -56.4551 15714.3818 25040.4961)">
			<stop  offset="0" style="stop-color:#00B7EB"/>
			<stop  offset="4.753640e-04" style="stop-color:#00B7EB"/>
			<stop  offset="0.9995" style="stop-color:#1FB584"/>
			<stop  offset="1" style="stop-color:#1FB584"/>
		</linearGradient>
		<polygon class="st1" points="7.2,14.6 38,14.3 38.2,34.4 7.4,34.7 		"/>
	</g>
	<g>
		<defs>
			<path id="SVGID_7_" d="M26,8.4C26,7,27,5.9,28.4,5.9c1.4,0,2.5,1.1,2.5,2.5c0,1.4-1.1,2.5-2.5,2.5C27,10.8,26,9.7,26,8.4
				 M23.7,8.4c0,2.7,2.1,4.8,4.8,4.8c2.7,0,4.8-2.2,4.8-4.8c0-2.6-2.1-4.8-4.8-4.8C25.8,3.6,23.7,5.7,23.7,8.4"/>
		</defs>
		<clipPath id="SVGID_8_">
			<use xlink:href="#SVGID_7_"  style="overflow:visible;"/>
		</clipPath>
		
			<linearGradient id="SVGID_9_" gradientUnits="userSpaceOnUse" x1="-274.6403" y1="445.2508" x2="-273.9806" y2="445.2508" gradientTransform="matrix(56.4551 -0.4705 -0.4705 -56.4551 15714.1777 25016.0605)">
			<stop  offset="0" style="stop-color:#00B7EB"/>
			<stop  offset="4.753640e-04" style="stop-color:#00B7EB"/>
			<stop  offset="0.9995" style="stop-color:#1FB584"/>
			<stop  offset="1" style="stop-color:#1FB584"/>
		</linearGradient>
		<polygon class="st2" points="23.6,3.6 33.2,3.5 33.3,13.1 23.7,13.2 		"/>
	</g>
	<g>
		<defs>
			<path id="SVGID_10_" d="M7.4,8.4c0-1.3,1.1-2.5,2.5-2.5c1.4,0,2.5,1.2,2.5,2.5c0,1.3-1.1,2.5-2.5,2.5C8.5,10.8,7.4,9.7,7.4,8.4
				 M9.9,3.6c-2.7,0-4.7,2.2-4.8,4.7c0,2.6,2.1,4.8,4.8,4.8c2.6,0,4.8-2.1,4.8-4.8C14.7,5.7,12.5,3.6,9.9,3.6
				C9.9,3.6,9.9,3.6,9.9,3.6"/>
		</defs>
		<clipPath id="SVGID_11_">
			<use xlink:href="#SVGID_10_"  style="overflow:visible;"/>
		</clipPath>
		
			<linearGradient id="SVGID_12_" gradientUnits="userSpaceOnUse" x1="-274.6403" y1="445.2493" x2="-273.9806" y2="445.2493" gradientTransform="matrix(56.4551 -0.4705 -0.4705 -56.4551 15714.1758 25015.8281)">
			<stop  offset="0" style="stop-color:#00B7EB"/>
			<stop  offset="4.753640e-04" style="stop-color:#00B7EB"/>
			<stop  offset="0.9995" style="stop-color:#1FB584"/>
			<stop  offset="1" style="stop-color:#1FB584"/>
		</linearGradient>
		<polygon class="st3" points="5,3.6 14.7,3.5 14.8,13.1 5.1,13.2 		"/>
	</g>
</g>
</svg>
